<svg data-v-fde0c5aa="" xmlns="http://www.w3.org/2000/svg" viewBox="0 0 300 300" class="iconAboveSlogan"><!----><defs data-v-fde0c5aa=""><!----></defs><rect data-v-fde0c5aa="" fill="#DF8E40" x="0" y="0" width="300px" height="300px" class="logo-background-square"></rect><defs data-v-fde0c5aa=""><!----></defs><g data-v-fde0c5aa="" id="dc02dad0-0a0f-4b07-81f5-00abbdd549aa" fill="#2A1A0A" transform="matrix(4.833612113305372,0,0,4.833612113305372,16.56813550327125,141.7153403211614)"><path d="M3.72 14.22L3.72 14.22L3.72 14.22Q2.42 14.22 1.57 13.17L1.57 13.17L1.57 13.17Q0.71 12.11 0.71 10.40L0.71 10.40L0.71 10.40Q0.71 8.69 1.30 7.29L1.30 7.29L1.30 7.29Q1.89 5.88 2.98 5.00L2.98 5.00L2.98 5.00Q4.07 4.12 5.31 4.12L5.31 4.12L5.31 4.12Q6.55 4.12 7.32 4.68L7.32 4.68L7.32 4.68Q8.08 5.24 8.08 6.01L8.08 6.01L8.08 6.01Q8.08 6.79 7.62 7.34L7.62 7.34L7.62 7.34Q7.17 7.34 6.61 7.14L6.61 7.14L6.61 7.14Q6.05 6.94 5.77 6.66L5.77 6.66L6.03 5.25L6.03 5.25Q5.70 5.04 5.15 5.04L5.15 5.04L5.15 5.04Q4.30 5.04 3.64 6.50L3.64 6.50L3.64 6.50Q2.98 7.97 2.98 10.11L2.98 10.11L2.98 10.11Q2.98 11.52 3.45 12.16L3.45 12.16L3.45 12.16Q3.92 12.80 4.59 12.80L4.59 12.80L4.59 12.80Q5.70 12.80 6.72 11.76L6.72 11.76L7.29 12.28L7.29 12.28Q7.14 12.50 6.73 12.89L6.73 12.89L6.73 12.89Q6.33 13.29 5.94 13.55L5.94 13.55L5.94 13.55Q5.54 13.80 4.94 14.01L4.94 14.01L4.94 14.01Q4.34 14.22 3.72 14.22ZM12.18 8.26L12.18 8.26L12.18 8.26Q12.21 8.23 12.33 7.90L12.33 7.90L12.33 7.90Q12.99 7.90 14.10 8.29L14.10 8.29L14.10 8.29Q13.75 9.45 13.54 10.72L13.54 10.72L13.54 10.72Q13.33 11.98 13.33 12.52L13.33 12.52L13.33 12.52Q13.33 13.06 13.44 13.06L13.44 13.06L13.44 13.06Q13.52 13.06 14.06 12.80L14.06 12.80L14.22 12.71L14.48 13.20L14.48 13.20Q14.35 13.31 14.15 13.48L14.15 13.48L14.15 13.48Q13.94 13.65 13.38 13.94L13.38 13.94L13.38 13.94Q12.82 14.22 12.38 14.22L12.38 14.22L12.38 14.22Q11.51 14.22 11.37 13.44L11.37 13.44L11.37 13.44Q10.47 14.22 9.75 14.22L9.75 14.22L9.75 14.22Q9.03 14.22 8.53 13.66L8.53 13.66L8.53 13.66Q8.04 13.10 8.04 11.90L8.04 11.90L8.04 11.90Q8.04 10.02 8.81 8.94L8.81 8.94L8.81 8.94Q9.58 7.85 10.67 7.85L10.67 7.85L10.67 7.85Q11.45 7.85 12.18 8.26ZM10.58 13.03L10.58 13.03L10.58 13.03Q10.92 13.03 11.34 12.77L11.34 12.77L11.34 12.77Q11.44 10.79 12.00 8.86L12.00 8.86L12.00 8.86Q11.58 8.68 11.28 8.68L11.28 8.68L11.28 8.68Q10.78 8.68 10.42 9.67L10.42 9.67L10.42 9.67Q10.07 10.65 10.07 11.84L10.07 11.84L10.07 11.84Q10.07 13.03 10.58 13.03ZM17.51 8.02L18.82 8.02L18.82 8.02Q18.79 8.33 18.56 8.83L18.56 8.83L18.56 8.83Q18.03 8.78 17.51 8.78L17.51 8.78L17.46 8.78L17.46 8.78Q17.16 12.24 16.91 13.89L16.91 13.89L16.91 13.89Q16.66 15.54 16.25 16.20L16.25 16.20L16.25 16.20Q15.75 16.18 15.21 16.07L15.21 16.07L15.21 16.07Q14.67 15.95 14.48 15.82L14.48 15.82L14.48 15.82Q14.81 14.78 15.15 12.70L15.15 12.70L15.15 12.70Q15.50 10.61 15.60 8.85L15.60 8.85L15.60 8.85Q15.20 8.88 14.73 8.95L14.73 8.95L14.73 8.95Q14.69 8.76 14.69 8.58L14.69 8.58L14.69 8.58Q14.69 8.39 14.74 8.02L14.74 8.02L15.64 8.02L15.64 8.02Q15.67 6.80 15.76 6.17L15.76 6.17L15.76 6.17Q15.93 5.05 16.54 4.42L16.54 4.42L16.54 4.42Q17.15 3.78 18.12 3.78L18.12 3.78L18.12 3.78Q18.73 3.78 19.09 4.05L19.09 4.05L19.09 4.05Q19.45 4.33 19.45 4.91L19.45 4.91L19.45 4.91Q19.45 5.50 18.91 6.43L18.91 6.43L18.91 6.43Q18.38 7.36 17.51 8.02L17.51 8.02ZM17.54 7.14L17.54 7.14Q18.09 6.68 18.40 6.12L18.40 6.12L18.40 6.12Q18.70 5.56 18.70 5.10L18.70 5.10L18.70 5.10Q18.70 4.65 18.41 4.65L18.41 4.65L18.41 4.65Q17.79 4.65 17.63 6.06L17.63 6.06L17.63 6.06Q17.57 6.54 17.54 7.14L17.54 7.14ZM18.77 11.63L18.77 11.63L18.77 11.63Q18.77 9.88 19.83 8.87L19.83 8.87L19.83 8.87Q20.89 7.85 22.23 7.85L22.23 7.85L22.23 7.85Q23.06 7.85 23.59 8.26L23.59 8.26L23.59 8.26Q24.12 8.67 24.12 9.35L24.12 9.35L24.12 9.35Q24.12 10.02 23.78 10.49L23.78 10.49L23.78 10.49Q23.44 10.95 22.95 11.20L22.95 11.20L22.95 11.20Q21.95 11.69 21.13 11.82L21.13 11.82L20.79 11.86L20.79 11.86Q20.89 13.17 21.87 13.17L21.87 13.17L21.87 13.17Q22.20 13.17 22.58 13.01L22.58 13.01L22.58 13.01Q22.96 12.84 23.17 12.67L23.17 12.67L23.38 12.50L23.72 12.95L23.72 12.95Q23.60 13.10 23.27 13.36L23.27 13.36L23.27 13.36Q22.93 13.61 22.64 13.78L22.64 13.78L22.64 13.78Q21.83 14.22 20.86 14.22L20.86 14.22L20.86 14.22Q19.89 14.22 19.33 13.54L19.33 13.54L19.33 13.54Q18.77 12.85 18.77 11.63ZM20.78 11.17L20.78 11.17Q21.49 11.05 21.91 10.57L21.91 10.57L21.91 10.57Q22.33 10.09 22.33 9.34L22.33 9.34L22.33 9.34Q22.33 8.58 21.88 8.58L21.88 8.58L21.88 8.58Q21.35 8.58 21.06 9.49L21.06 9.49L21.06 9.49Q20.78 10.39 20.78 11.17L20.78 11.17ZM27.68 14.11L27.68 14.11L27.41 14.11L27.41 14.11Q27.47 13.48 28.15 10.41L28.15 10.41L28.15 10.41Q28.84 7.34 29.01 5.81L29.01 5.81L29.01 5.81Q29.01 5.59 28.86 5.27L28.86 5.27L28.86 5.27Q28.71 4.96 28.56 4.76L28.56 4.76L28.42 4.56L28.46 4.35L28.46 4.35Q29.25 4.12 31.16 4.12L31.16 4.12L31.16 4.12Q31.35 4.45 31.35 5.08L31.35 5.08L31.35 5.08Q31.35 5.70 30.65 8.58L30.65 8.58L30.72 8.58L30.72 8.58Q31.96 8.58 32.50 7.64L32.50 7.64L32.50 7.64Q33.04 6.69 33.31 4.45L33.31 4.45L33.31 4.45Q34.30 4.12 35.39 4.12L35.39 4.12L35.39 4.12Q35.42 4.21 35.41 4.59L35.41 4.59L35.41 4.59Q35.41 4.97 35.27 5.57L35.27 5.57L35.27 5.57Q35.13 6.16 34.85 6.82L34.85 6.82L34.85 6.82Q34.58 7.48 34.06 8.06L34.06 8.06L34.06 8.06Q33.53 8.64 32.84 8.99L32.84 8.99L32.84 8.99Q33.66 11.76 34.24 12.60L34.24 12.60L34.24 12.60Q34.50 12.95 34.64 12.95L34.64 12.95L34.64 12.95Q34.89 12.95 35.42 12.70L35.42 12.70L35.59 12.61L35.91 13.13L35.91 13.13Q35.39 13.61 34.71 13.92L34.71 13.92L34.71 13.92Q34.03 14.22 33.43 14.22L33.43 14.22L33.43 14.22Q32.83 14.22 32.49 13.75L32.49 13.75L32.49 13.75Q32.14 13.27 31.91 12.57L31.91 12.57L31.91 12.57Q31.68 11.86 31.43 10.89L31.43 10.89L31.43 10.89Q31.18 9.93 31.09 9.44L31.09 9.44L31.09 9.44Q30.97 9.45 30.44 9.45L30.44 9.45L30.44 9.45Q29.61 12.95 29.61 13.83L29.61 13.83L29.61 13.83Q29.06 14.11 27.68 14.11ZM39.00 8.72L39.00 8.72L39.00 8.72Q39.00 9.31 38.63 10.75L38.63 10.75L38.63 10.75Q38.25 12.18 38.25 12.62L38.25 12.62L38.25 12.62Q38.25 13.06 38.37 13.06L38.37 13.06L38.37 13.06Q38.46 13.06 39.02 12.80L39.02 12.80L39.19 12.71L39.42 13.20L39.42 13.20Q39.30 13.31 39.09 13.48L39.09 13.48L39.09 13.48Q38.88 13.65 38.30 13.94L38.30 13.94L38.30 13.94Q37.73 14.22 37.24 14.22L37.24 14.22L37.24 14.22Q36.75 14.22 36.47 13.92L36.47 13.92L36.47 13.92Q36.19 13.62 36.19 13.11L36.19 13.11L36.19 13.11Q36.19 12.60 36.54 11.29L36.54 11.29L36.54 11.29Q36.89 9.98 36.89 9.59L36.89 9.59L36.89 9.59Q36.89 9.00 36.53 8.48L36.53 8.48L36.40 8.32L36.41 8.13L36.41 8.13Q37.16 7.92 38.82 7.92L38.82 7.92L38.82 7.92Q39.00 8.13 39.00 8.72ZM37.41 6.39L37.41 6.39L37.41 6.39Q37.13 6.12 37.13 5.66L37.13 5.66L37.13 5.66Q37.13 5.19 37.51 4.84L37.51 4.84L37.51 4.84Q37.90 4.49 38.40 4.49L38.40 4.49L38.40 4.49Q38.91 4.49 39.19 4.77L39.19 4.77L39.19 4.77Q39.47 5.05 39.47 5.51L39.47 5.51L39.47 5.51Q39.47 5.96 39.07 6.31L39.07 6.31L39.07 6.31Q38.67 6.66 38.18 6.66L38.18 6.66L38.18 6.66Q37.69 6.66 37.41 6.39ZM42.94 8.02L44.30 8.02L44.30 8.02Q44.27 8.37 44.06 8.83L44.06 8.83L44.06 8.83Q43.53 8.78 43.05 8.78L43.05 8.78L42.80 8.78L42.80 8.78Q42.15 11.90 42.15 12.67L42.15 12.67L42.15 12.67Q42.15 13.08 42.33 13.08L42.33 13.08L42.33 13.08Q42.50 13.08 43.26 12.73L43.26 12.73L43.51 13.19L43.51 13.19Q42.27 14.22 41.20 14.22L41.20 14.22L41.20 14.22Q40.71 14.22 40.40 13.92L40.40 13.92L40.40 13.92Q40.08 13.61 40.08 13.10L40.08 13.10L40.08 13.10Q40.08 12.59 40.20 11.94L40.20 11.94L40.20 11.94Q40.32 11.30 40.53 10.37L40.53 10.37L40.53 10.37Q40.74 9.44 40.84 8.86L40.84 8.86L40.84 8.86Q40.32 8.90 40.07 8.95L40.07 8.95L40.07 8.95Q40.04 8.78 40.04 8.49L40.04 8.49L40.04 8.49Q40.04 8.20 40.08 8.02L40.08 8.02L40.96 8.02L40.96 8.02Q41.08 7.27 41.08 6.59L41.08 6.59L41.06 6.16L41.06 6.12L41.06 6.12Q42.15 5.74 43.12 5.74L43.12 5.74L43.12 5.74Q43.18 6.02 43.18 6.44L43.18 6.44L43.18 6.44Q43.18 6.86 42.94 8.02L42.94 8.02ZM47.31 8.02L48.66 8.02L48.66 8.02Q48.64 8.37 48.43 8.83L48.43 8.83L48.43 8.83Q47.89 8.78 47.42 8.78L47.42 8.78L47.17 8.78L47.17 8.78Q46.52 11.90 46.52 12.67L46.52 12.67L46.52 12.67Q46.52 13.08 46.70 13.08L46.70 13.08L46.70 13.08Q46.87 13.08 47.63 12.73L47.63 12.73L47.88 13.19L47.88 13.19Q46.63 14.22 45.57 14.22L45.57 14.22L45.57 14.22Q45.08 14.22 44.77 13.92L44.77 13.92L44.77 13.92Q44.45 13.61 44.45 13.10L44.45 13.10L44.45 13.10Q44.45 12.59 44.57 11.94L44.57 11.94L44.57 11.94Q44.69 11.30 44.90 10.37L44.90 10.37L44.90 10.37Q45.11 9.44 45.21 8.86L45.21 8.86L45.21 8.86Q44.69 8.90 44.44 8.95L44.44 8.95L44.44 8.95Q44.41 8.78 44.41 8.49L44.41 8.49L44.41 8.49Q44.41 8.20 44.45 8.02L44.45 8.02L45.33 8.02L45.33 8.02Q45.44 7.27 45.44 6.59L45.44 6.59L45.43 6.16L45.43 6.12L45.43 6.12Q46.52 5.74 47.49 5.74L47.49 5.74L47.49 5.74Q47.54 6.02 47.54 6.44L47.54 6.44L47.54 6.44Q47.54 6.86 47.31 8.02L47.31 8.02ZM50.32 15.57L50.32 15.57L50.32 15.57Q49.85 15.85 49.85 16.11L49.85 16.11L49.85 16.11Q49.85 16.38 50.16 16.38L50.16 16.38L50.16 16.38Q50.46 16.38 50.83 16.09L50.83 16.09L50.83 16.09Q51.21 15.81 51.46 15.16L51.46 15.16L51.46 15.16Q50.79 15.29 50.32 15.57ZM49.64 14.11L49.64 14.11L49.64 14.11Q48.47 14.11 48.47 12.82L48.47 12.82L48.47 12.82Q48.47 12.52 48.75 11.05L48.75 11.05L48.75 11.05Q49.03 9.58 49.03 8.60L49.03 8.60L49.03 8.60Q49.03 8.39 48.97 8.20L48.97 8.20L48.97 8.20Q49.73 7.91 51.04 7.91L51.04 7.91L51.04 7.91Q51.11 8.11 51.11 8.58L51.11 8.58L51.11 8.58Q51.11 9.06 50.81 10.56L50.81 10.56L50.81 10.56Q50.50 12.05 50.50 12.49L50.50 12.49L50.50 12.49Q50.50 12.92 50.86 12.92L50.86 12.92L50.86 12.92Q51.30 12.92 51.91 12.49L51.91 12.49L51.91 12.49Q51.98 11.66 52.47 8.13L52.47 8.13L52.47 8.13Q52.96 7.94 54.24 7.94L54.24 7.94L54.50 7.94L54.50 7.94Q54.24 8.99 53.98 10.96L53.98 10.96L53.98 10.96Q53.73 12.94 53.58 13.71L53.58 13.71L53.58 13.71Q53.28 15.25 52.49 16.22L52.49 16.22L52.49 16.22Q51.70 17.19 50.43 17.19L50.43 17.19L50.43 17.19Q49.92 17.19 49.51 16.93L49.51 16.93L49.51 16.93Q49.10 16.66 49.10 16.24L49.10 16.24L49.10 16.24Q49.10 15.68 49.78 15.22L49.78 15.22L49.78 15.22Q50.47 14.76 51.63 14.50L51.63 14.50L51.63 14.50Q51.76 13.89 51.83 13.31L51.83 13.31L51.83 13.31Q50.69 14.11 49.64 14.11Z"></path></g><defs data-v-fde0c5aa=""><!----></defs><g data-v-fde0c5aa="" id="f8ae5904-3162-4905-bfd7-250428218f73" stroke="none" fill="#2A1A0A" transform="matrix(0.16719172009936717,0,0,0.16719172009936717,110.8851782267263,57.099378867616934)"><path d="M437.904 1.76c-2.035.933-7.376 5.681-13.31 11.786-11.277 11.7-16.703 15.684-23.994 17.55-11.7 2.967-21.366.847-42.307-9.58-12.124-6.02-15.176-7.292-18.652-7.292-3.816-.085-4.409.17-6.105 2.713-2.458 3.56-3.306 10.174-2.543 20.009.678 10.767 2.882 19.754 9.835 40.865 6.782 20.687 8.563 27.978 8.732 35.948.17 7.97-1.61 13.226-5.68 17.38-4.663 4.579-8.733 5.85-29.759 9.327-32.387 5.426-53.328 11.615-73.252 21.535-39.51 19.754-69.268 54.939-87.836 103.944-4.748 12.547-8.224 24.163-15.77 52.82-9.834 37.389-10.682 39.254-25.773 55.024-19.585 20.517-34.422 30.097-68.76 44.341-17.634 7.291-25.265 11.53-30.86 16.957C4.324 442.378 1.44 449.415.34 462.64c-1.273 16.024 7.714 29.08 26.79 38.915 3.985 2.035 9.666 4.41 12.718 5.172 7.885 2.035 14.413.848 14.413-2.628 0-.678-3.985-5.426-8.817-10.598-12.294-12.972-15.261-19.84-12.04-28.317 2.629-6.698 14.244-15.855 28.064-22.044 6.613-2.967 45.528-18.483 54.26-21.704 21.96-8.055 31.54-7.716 42.816 1.78l4.07 3.391 82.918-.17 83.002-.254-.254-6.358c-.763-16.533-5.087-19.84-27.555-21.111-6.358-.34-11.87-.848-12.039-1.102-.763-.679 2.544-8.479 8.055-19.331 9.834-19.246 23.315-37.559 31.03-42.052 3.476-2.035 4.409-2.205 10.768-1.866 7.97.424 12.463 2.29 16.532 6.953 3.392 3.9 4.324 7.121 5.68 20.093.848 7.885 1.781 12.379 3.731 17.296 9.665 25.01 38.492 52.65 54.6 52.226 5.511-.085 7.97-1.78 11.022-7.715 2.713-5.341 3.052-11.36.933-15.515-.763-1.526-5.172-6.613-9.665-11.361-20.094-20.857-26.283-37.39-26.283-70.285 0-33.405 6.528-57.907 20.856-78.085 2.035-2.883 8.903-10.853 15.261-17.805 20.263-22.128 24.248-30.691 24.248-51.972-.085-12.293-.932-18.822-4.493-32.048-6.02-22.806-3.985-33.828 8.732-48.072 8.648-9.75 9.411-13.141 6.36-29.335-3.392-17.72-4.664-25.52-6.444-41.035-2.29-19.5-3.985-23.824-10.005-26.367-3.73-1.611-7.63-1.442-11.7.424z"></path></g><defs data-v-fde0c5aa=""><!----></defs><g data-v-fde0c5aa="" id="0e3da427-814c-4c9d-84f3-5fc532fc2654" fill="#2A1A0A" transform="matrix(0.6933086582855992,0,0,0.6933086582855992,51.404572372804004,231.52578631581633)"><path d="M7.28 9.34L7.28 9.34L7.28 9.34Q7.73 9.34 7.99 9.59L7.99 9.59L7.99 9.59Q8.25 9.84 8.25 10.29L8.25 10.29L8.25 10.29Q8.25 10.40 8.23 10.52L8.23 10.52L8.23 10.52Q8.22 10.64 8.18 10.72L8.18 10.72L8.18 10.72Q7.99 10.70 7.77 10.68L7.77 10.68L7.77 10.68Q7.55 10.65 7.24 10.65L7.24 10.65L7.24 10.65Q6.61 10.65 5.98 10.77L5.98 10.77L5.98 10.77Q5.35 10.88 4.77 10.95L4.77 10.95L4.77 10.95Q4.14 12.43 3.74 13.73L3.74 13.73L3.74 13.73Q3.33 15.04 3.11 16.31L3.11 16.31L3.11 16.31Q2.63 16.20 2.27 15.90L2.27 15.90L2.27 15.90Q1.90 15.61 1.58 15.08L1.58 15.08L1.58 15.08Q1.68 14.85 1.82 14.54L1.82 14.54L1.82 14.54Q1.96 14.22 2.16 13.74L2.16 13.74L2.16 13.74Q2.35 13.26 2.63 12.56L2.63 12.56L2.63 12.56Q2.90 11.87 3.28 10.91L3.28 10.91L3.28 10.91Q2.69 10.71 2.51 10.22L2.51 10.22L2.51 10.22Q2.58 10.15 2.90 10.06L2.90 10.06L2.90 10.06Q3.22 9.97 3.68 9.86L3.68 9.86L3.68 9.86Q3.89 9.31 4.05 8.88L4.05 8.88L4.05 8.88Q4.20 8.46 4.33 8.07L4.33 8.07L4.33 8.07Q4.45 7.69 4.56 7.32L4.56 7.32L4.56 7.32Q4.66 6.94 4.75 6.52L4.75 6.52L4.68 6.52L4.68 6.52Q4.14 6.52 3.81 6.27L3.81 6.27L3.81 6.27Q3.49 6.02 3.49 5.61L3.49 5.61L3.49 5.61Q3.49 5.50 3.52 5.35L3.52 5.35L3.52 5.35Q3.56 5.19 3.61 5.08L3.61 5.08L3.61 5.08Q3.88 5.12 4.14 5.14L4.14 5.14L4.14 5.14Q4.40 5.15 4.82 5.15L4.82 5.15L4.82 5.15Q5.70 5.15 6.47 5.10L6.47 5.10L6.47 5.10Q7.24 5.05 7.86 5.00L7.86 5.00L7.86 5.00Q8.48 4.94 8.93 4.89L8.93 4.89L8.93 4.89Q9.38 4.84 9.62 4.84L9.62 4.84L9.62 4.84Q9.94 4.84 10.19 5.18L10.19 5.18L10.19 5.18Q10.44 5.52 10.58 6.13L10.58 6.13L10.58 6.13Q10.14 6.09 9.86 6.08L9.86 6.08L9.86 6.08Q9.59 6.06 9.38 6.06L9.38 6.06L9.38 6.06Q8.67 6.06 8.07 6.13L8.07 6.13L8.07 6.13Q7.48 6.19 6.94 6.27L6.94 6.27L6.94 6.27Q6.86 6.40 6.75 6.59L6.75 6.59L6.75 6.59Q6.65 6.79 6.48 7.15L6.48 7.15L6.48 7.15Q6.31 7.50 6.05 8.08L6.05 8.08L6.05 8.08Q5.80 8.65 5.40 9.53L5.40 9.53L5.40 9.53Q5.95 9.45 6.45 9.39L6.45 9.39L6.45 9.39Q6.94 9.34 7.28 9.34ZM21.91 9.21L21.91 9.21L21.91 9.21Q22.37 9.21 22.63 9.46L22.63 9.46L22.63 9.46Q22.89 9.72 22.89 10.16L22.89 10.16L22.89 10.16Q22.89 10.28 22.87 10.39L22.87 10.39L22.87 10.39Q22.85 10.51 22.82 10.60L22.82 10.60L22.82 10.60Q22.64 10.57 22.41 10.55L22.41 10.55L22.41 10.55Q22.19 10.53 21.88 10.53L21.88 10.53L21.88 10.53Q21.28 10.53 20.66 10.63L20.66 10.63L20.66 10.63Q20.05 10.74 19.49 10.81L19.49 10.81L19.49 10.81Q19.17 11.55 18.90 12.24L18.90 12.24L18.90 12.24Q18.63 12.94 18.45 13.51L18.45 13.51L18.45 13.51Q18.26 14.08 18.15 14.50L18.15 14.50L18.15 14.50Q18.05 14.92 18.03 15.13L18.03 15.13L18.03 15.13Q19.17 14.90 20.32 14.73L20.32 14.73L20.32 14.73Q21.48 14.56 22.75 14.48L22.75 14.48L22.75 14.48Q22.90 14.71 23.01 14.99L23.01 14.99L23.01 14.99Q23.11 15.27 23.11 15.60L23.11 15.60L23.11 15.60Q23.11 15.68 23.11 15.78L23.11 15.78L23.11 15.78Q23.11 15.88 23.09 15.97L23.09 15.97L23.09 15.97Q22.69 15.96 22.26 15.95L22.26 15.95L22.26 15.95Q21.83 15.95 21.13 15.95L21.13 15.95L21.13 15.95Q20.66 15.95 20.25 15.97L20.25 15.97L20.25 15.97Q19.84 15.99 19.42 16.03L19.42 16.03L19.42 16.03Q19.00 16.07 18.53 16.14L18.53 16.14L18.53 16.14Q18.06 16.21 17.47 16.31L17.47 16.31L17.47 16.31Q16.83 16.06 16.23 15.08L16.23 15.08L16.23 15.08Q16.46 14.57 16.89 13.54L16.89 13.54L16.89 13.54Q17.32 12.52 17.98 10.79L17.98 10.79L17.98 10.79Q17.35 10.60 17.15 10.09L17.15 10.09L17.15 10.09Q17.22 10.02 17.56 9.92L17.56 9.92L17.56 9.92Q17.89 9.81 18.38 9.70L18.38 9.70L18.38 9.70Q18.59 9.16 18.74 8.75L18.74 8.75L18.74 8.75Q18.89 8.34 19.00 7.99L19.00 7.99L19.00 7.99Q19.11 7.63 19.20 7.29L19.20 7.29L19.20 7.29Q19.29 6.94 19.38 6.54L19.38 6.54L19.38 6.54Q18.89 6.51 18.61 6.27L18.61 6.27L18.61 6.27Q18.33 6.02 18.33 5.63L18.33 5.63L18.33 5.63Q18.33 5.52 18.36 5.36L18.36 5.36L18.36 5.36Q18.40 5.21 18.44 5.10L18.44 5.10L18.44 5.10Q18.72 5.14 18.98 5.15L18.98 5.15L18.98 5.15Q19.24 5.17 19.66 5.17L19.66 5.17L19.66 5.17Q20.54 5.17 21.31 5.12L21.31 5.12L21.31 5.12Q22.08 5.07 22.70 5.01L22.70 5.01L22.70 5.01Q23.32 4.96 23.77 4.91L23.77 4.91L23.77 4.91Q24.22 4.86 24.46 4.86L24.46 4.86L24.46 4.86Q24.78 4.86 25.03 5.19L25.03 5.19L25.03 5.19Q25.28 5.53 25.41 6.15L25.41 6.15L25.41 6.15Q24.98 6.10 24.70 6.09L24.70 6.09L24.70 6.09Q24.43 6.08 24.22 6.08L24.22 6.08L24.22 6.08Q23.45 6.08 22.81 6.15L22.81 6.15L22.81 6.15Q22.18 6.23 21.59 6.31L21.59 6.31L21.59 6.31Q21.50 6.44 21.40 6.64L21.40 6.64L21.40 6.64Q21.29 6.83 21.13 7.18L21.13 7.18L21.13 7.18Q20.96 7.53 20.71 8.06L20.71 8.06L20.71 8.06Q20.47 8.60 20.12 9.39L20.12 9.39L20.12 9.39Q20.65 9.31 21.12 9.26L21.12 9.26L21.12 9.26Q21.59 9.21 21.91 9.21ZM37.44 9.21L37.44 9.21L37.44 9.21Q37.90 9.21 38.16 9.46L38.16 9.46L38.16 9.46Q38.42 9.72 38.42 10.16L38.42 10.16L38.42 10.16Q38.42 10.28 38.40 10.39L38.40 10.39L38.40 10.39Q38.37 10.51 38.35 10.60L38.35 10.60L38.35 10.60Q38.16 10.57 37.94 10.55L37.94 10.55L37.94 10.55Q37.72 10.53 37.41 10.53L37.41 10.53L37.41 10.53Q36.81 10.53 36.19 10.63L36.19 10.63L36.19 10.63Q35.57 10.74 35.01 10.81L35.01 10.81L35.01 10.81Q34.69 11.55 34.43 12.24L34.43 12.24L34.43 12.24Q34.16 12.94 33.97 13.51L33.97 13.51L33.97 13.51Q33.78 14.08 33.68 14.50L33.68 14.50L33.68 14.50Q33.57 14.92 33.56 15.13L33.56 15.13L33.56 15.13Q34.69 14.90 35.85 14.73L35.85 14.73L35.85 14.73Q37.00 14.56 38.28 14.48L38.28 14.48L38.28 14.48Q38.43 14.71 38.54 14.99L38.54 14.99L38.54 14.99Q38.64 15.27 38.64 15.60L38.64 15.60L38.64 15.60Q38.64 15.68 38.64 15.78L38.64 15.78L38.64 15.78Q38.64 15.88 38.61 15.97L38.61 15.97L38.61 15.97Q38.22 15.96 37.79 15.95L37.79 15.95L37.79 15.95Q37.35 15.95 36.65 15.95L36.65 15.95L36.65 15.95Q36.19 15.95 35.78 15.97L35.78 15.97L35.78 15.97Q35.36 15.99 34.94 16.03L34.94 16.03L34.94 16.03Q34.52 16.07 34.05 16.14L34.05 16.14L34.05 16.14Q33.59 16.21 33.00 16.31L33.00 16.31L33.00 16.31Q32.35 16.06 31.75 15.08L31.75 15.08L31.75 15.08Q31.99 14.57 32.42 13.54L32.42 13.54L32.42 13.54Q32.84 12.52 33.50 10.79L33.50 10.79L33.50 10.79Q32.87 10.60 32.68 10.09L32.68 10.09L32.68 10.09Q32.75 10.02 33.08 9.92L33.08 9.92L33.08 9.92Q33.42 9.81 33.91 9.70L33.91 9.70L33.91 9.70Q34.12 9.16 34.27 8.75L34.27 8.75L34.27 8.75Q34.41 8.34 34.52 7.99L34.52 7.99L34.52 7.99Q34.64 7.63 34.73 7.29L34.73 7.29L34.73 7.29Q34.82 6.94 34.90 6.54L34.90 6.54L34.90 6.54Q34.41 6.51 34.13 6.27L34.13 6.27L34.13 6.27Q33.85 6.02 33.85 5.63L33.85 5.63L33.85 5.63Q33.85 5.52 33.89 5.36L33.89 5.36L33.89 5.36Q33.92 5.21 33.96 5.10L33.96 5.10L33.96 5.10Q34.24 5.14 34.50 5.15L34.50 5.15L34.50 5.15Q34.76 5.17 35.18 5.17L35.18 5.17L35.18 5.17Q36.06 5.17 36.83 5.12L36.83 5.12L36.83 5.12Q37.60 5.07 38.23 5.01L38.23 5.01L38.23 5.01Q38.85 4.96 39.30 4.91L39.30 4.91L39.30 4.91Q39.75 4.86 39.98 4.86L39.98 4.86L39.98 4.86Q40.31 4.86 40.56 5.19L40.56 5.19L40.56 5.19Q40.81 5.53 40.94 6.15L40.94 6.15L40.94 6.15Q40.50 6.10 40.23 6.09L40.23 6.09L40.23 6.09Q39.96 6.08 39.75 6.08L39.75 6.08L39.75 6.08Q38.98 6.08 38.34 6.15L38.34 6.15L38.34 6.15Q37.70 6.23 37.11 6.31L37.11 6.31L37.11 6.31Q37.03 6.44 36.93 6.64L36.93 6.64L36.93 6.64Q36.82 6.83 36.65 7.18L36.65 7.18L36.65 7.18Q36.48 7.53 36.24 8.06L36.24 8.06L36.24 8.06Q35.99 8.60 35.64 9.39L35.64 9.39L35.64 9.39Q36.18 9.31 36.65 9.26L36.65 9.26L36.65 9.26Q37.11 9.21 37.44 9.21ZM52.39 14.38L52.39 14.38L52.39 14.38Q52.74 14.98 52.74 15.54L52.74 15.54L52.74 15.54Q52.74 15.67 52.72 15.77L52.72 15.77L52.72 15.77Q52.70 15.88 52.67 15.99L52.67 15.99L52.67 15.99Q52.43 15.96 52.17 15.95L52.17 15.95L52.17 15.95Q51.91 15.93 51.63 15.93L51.63 15.93L51.63 15.93Q51.30 15.93 50.95 15.95L50.95 15.95L50.95 15.95Q50.61 15.97 50.19 16.02L50.19 16.02L50.19 16.02Q49.77 16.06 49.25 16.13L49.25 16.13L49.25 16.13Q48.73 16.20 48.05 16.31L48.05 16.31L48.05 16.31Q47.73 16.20 47.40 15.87L47.40 15.87L47.40 15.87Q47.08 15.54 46.80 15.08L46.80 15.08L46.80 15.08Q46.94 14.77 47.15 14.31L47.15 14.31L47.15 14.31Q47.36 13.86 47.64 13.21L47.64 13.21L47.64 13.21Q47.92 12.56 48.27 11.68L48.27 11.68L48.27 11.68Q48.61 10.81 49.00 9.66L49.00 9.66L49.00 9.66Q49.25 8.90 49.43 8.33L49.43 8.33L49.43 8.33Q49.62 7.76 49.76 7.22L49.76 7.22L49.76 7.22Q49.91 6.68 50.05 6.09L50.05 6.09L50.05 6.09Q50.19 5.50 50.36 4.73L50.36 4.73L50.36 4.73Q50.92 4.84 51.33 5.14L51.33 5.14L51.33 5.14Q51.74 5.45 52.12 6.01L52.12 6.01L52.12 6.01Q52.01 6.19 51.83 6.59L51.83 6.59L51.83 6.59Q51.65 7 51.40 7.58L51.40 7.58L51.40 7.58Q51.16 8.16 50.86 8.90L50.86 8.90L50.86 8.90Q50.57 9.63 50.25 10.47L50.25 10.47L50.25 10.47Q49.94 11.30 49.64 12.03L49.64 12.03L49.64 12.03Q49.35 12.75 49.12 13.34L49.12 13.34L49.12 13.34Q48.89 13.93 48.75 14.35L48.75 14.35L48.75 14.35Q48.61 14.77 48.61 14.98L48.61 14.98L48.61 14.98Q48.83 14.97 49.01 14.95L49.01 14.95L49.01 14.95Q49.20 14.94 49.39 14.90L49.39 14.90L49.39 14.90Q49.59 14.87 49.82 14.82L49.82 14.82L49.82 14.82Q50.05 14.77 50.37 14.69L50.37 14.69L50.37 14.69Q50.65 14.62 50.89 14.57L50.89 14.57L50.89 14.57Q51.13 14.52 51.36 14.48L51.36 14.48L51.36 14.48Q51.59 14.45 51.84 14.43L51.84 14.43L51.84 14.43Q52.08 14.41 52.39 14.38ZM74.28 6.69L74.28 6.69L74.28 6.69Q73.72 6.69 73.42 6.38L73.42 6.38L73.42 6.38Q73.12 6.06 73.12 5.61L73.12 5.61L73.12 5.61Q73.12 5.50 73.16 5.35L73.16 5.35L73.16 5.35Q73.19 5.19 73.25 5.08L73.25 5.08L73.25 5.08Q73.43 5.17 73.79 5.20L73.79 5.20L73.79 5.20Q74.14 5.24 74.62 5.24L74.62 5.24L74.62 5.24Q75.33 5.24 76.24 5.17L76.24 5.17L76.24 5.17Q77.14 5.11 77.97 5.04L77.97 5.04L77.97 5.04Q78.79 4.97 79.42 4.91L79.42 4.91L79.42 4.91Q80.05 4.84 80.23 4.84L80.23 4.84L80.23 4.84Q80.75 4.84 80.98 5.23L80.98 5.23L80.98 5.23Q81.21 5.61 81.33 6.26L81.33 6.26L81.33 6.26Q80.96 6.23 80.61 6.21L80.61 6.21L80.61 6.21Q80.25 6.19 80.00 6.19L80.00 6.19L80.00 6.19Q79.55 6.19 79.09 6.22L79.09 6.22L79.09 6.22Q78.64 6.24 78.18 6.30L78.18 6.30L78.18 6.30Q77.98 6.71 77.74 7.26L77.74 7.26L77.74 7.26Q77.50 7.81 77.27 8.41L77.27 8.41L77.27 8.41Q77.04 9.02 76.83 9.61L76.83 9.61L76.83 9.61Q76.62 10.21 76.47 10.68L76.47 10.68L76.47 10.68Q76.16 11.61 75.93 12.39L75.93 12.39L75.93 12.39Q75.70 13.17 75.52 13.85L75.52 13.85L75.52 13.85Q75.35 14.53 75.22 15.15L75.22 15.15L75.22 15.15Q75.10 15.76 75.00 16.35L75.00 16.35L75.00 16.35Q74.06 16.21 73.43 15.18L73.43 15.18L73.43 15.18Q73.54 14.74 73.70 14.23L73.70 14.23L73.70 14.23Q73.86 13.72 74.08 13.07L74.08 13.07L74.08 13.07Q74.30 12.42 74.59 11.59L74.59 11.59L74.59 11.59Q74.89 10.77 75.26 9.72L75.26 9.72L75.26 9.72Q75.40 9.32 75.56 8.90L75.56 8.90L75.56 8.90Q75.71 8.47 75.86 8.05L75.86 8.05L75.86 8.05Q76.01 7.63 76.13 7.24L76.13 7.24L76.13 7.24Q76.24 6.85 76.33 6.52L76.33 6.52L76.33 6.52Q75.74 6.59 75.22 6.64L75.22 6.64L75.22 6.64Q74.69 6.69 74.28 6.69ZM92.20 14.36L92.20 14.36L92.20 14.36Q92.20 13.78 92.40 12.85L92.40 12.85L92.40 12.85Q92.60 11.93 92.92 10.88L92.92 10.88L92.92 10.88Q91.99 10.95 91.06 11.06L91.06 11.06L91.06 11.06Q90.13 11.17 89.45 11.19L89.45 11.19L89.45 11.19Q88.82 12.66 88.45 13.89L88.45 13.89L88.45 13.89Q88.07 15.13 87.86 16.31L87.86 16.31L87.86 16.31Q87.33 16.18 86.98 15.87L86.98 15.87L86.98 15.87Q86.63 15.55 86.34 15.08L86.34 15.08L86.34 15.08Q86.45 14.85 86.60 14.50L86.60 14.50L86.60 14.50Q86.74 14.15 86.95 13.66L86.95 13.66L86.95 13.66Q87.15 13.16 87.41 12.50L87.41 12.50L87.41 12.50Q87.67 11.83 88.00 10.95L88.00 10.95L88.00 10.95Q87.54 10.75 87.39 10.40L87.39 10.40L87.39 10.40Q87.46 10.35 87.70 10.28L87.70 10.28L87.70 10.28Q87.95 10.22 88.31 10.15L88.31 10.15L88.49 9.70L88.49 9.70Q88.79 8.95 88.98 8.43L88.98 8.43L88.98 8.43Q89.17 7.91 89.30 7.41L89.30 7.41L89.30 7.41Q89.43 6.92 89.55 6.31L89.55 6.31L89.55 6.31Q89.67 5.71 89.84 4.79L89.84 4.79L89.84 4.79Q90.43 4.90 90.91 5.31L90.91 5.31L90.91 5.31Q91.39 5.71 91.74 6.29L91.74 6.29L91.74 6.29Q91.62 6.45 91.43 6.79L91.43 6.79L91.43 6.79Q91.25 7.13 91.04 7.59L91.04 7.59L91.04 7.59Q90.82 8.06 90.57 8.64L90.57 8.64L90.57 8.64Q90.31 9.23 90.02 9.87L90.02 9.87L90.02 9.87Q90.89 9.76 91.78 9.66L91.78 9.66L91.78 9.66Q92.67 9.56 93.35 9.52L93.35 9.52L93.35 9.52Q93.60 8.79 93.88 8.10L93.88 8.10L93.88 8.10Q94.15 7.41 94.42 6.83L94.42 6.83L94.42 6.83Q94.68 6.26 94.93 5.82L94.93 5.82L94.93 5.82Q95.17 5.39 95.37 5.18L95.37 5.18L95.37 5.18Q95.51 5.19 95.74 5.29L95.74 5.29L95.74 5.29Q95.97 5.38 96.21 5.50L96.21 5.50L96.21 5.50Q96.45 5.63 96.64 5.78L96.64 5.78L96.64 5.78Q96.84 5.92 96.91 6.05L96.91 6.05L96.91 6.05Q96.66 6.29 96.40 6.66L96.40 6.66L96.40 6.66Q96.15 7.04 95.91 7.53L95.91 7.53L95.91 7.53Q95.66 8.02 95.42 8.60L95.42 8.60L95.42 8.60Q95.19 9.17 94.98 9.79L94.98 9.79L94.98 9.79Q95.26 10.04 95.26 10.42L95.26 10.42L95.26 10.42Q95.26 10.68 95.14 10.91L95.14 10.91L95.14 10.91Q95.02 10.88 94.89 10.87L94.89 10.87L94.89 10.87Q94.77 10.86 94.63 10.85L94.63 10.85L94.63 10.85Q94.39 11.61 94.19 12.35L94.19 12.35L94.19 12.35Q94.00 13.09 93.86 13.76L93.86 13.76L93.86 13.76Q93.73 14.43 93.65 14.99L93.65 14.99L93.65 14.99Q93.58 15.55 93.58 15.93L93.58 15.93L93.58 15.93Q93.58 16.07 93.58 16.16L93.58 16.16L93.58 16.16Q93.59 16.24 93.60 16.30L93.60 16.30L93.60 16.30Q93.30 16.28 93.16 16.19L93.16 16.19L93.16 16.19Q93.02 16.10 92.95 16.00L92.95 16.00L92.95 16.00Q92.88 15.89 92.82 15.79L92.82 15.79L92.82 15.79Q92.76 15.68 92.64 15.62L92.64 15.62L92.64 15.62Q92.54 15.58 92.46 15.43L92.46 15.43L92.46 15.43Q92.37 15.27 92.32 15.08L92.32 15.08L92.32 15.08Q92.26 14.88 92.23 14.69L92.23 14.69L92.23 14.69Q92.20 14.49 92.20 14.36ZM108.98 9.21L108.98 9.21L108.98 9.21Q109.44 9.21 109.70 9.46L109.70 9.46L109.70 9.46Q109.96 9.72 109.96 10.16L109.96 10.16L109.96 10.16Q109.96 10.28 109.94 10.39L109.94 10.39L109.94 10.39Q109.91 10.51 109.89 10.60L109.89 10.60L109.89 10.60Q109.70 10.57 109.48 10.55L109.48 10.55L109.48 10.55Q109.26 10.53 108.95 10.53L108.95 10.53L108.95 10.53Q108.35 10.53 107.73 10.63L107.73 10.63L107.73 10.63Q107.11 10.74 106.55 10.81L106.55 10.81L106.55 10.81Q106.23 11.55 105.97 12.24L105.97 12.24L105.97 12.24Q105.70 12.94 105.51 13.51L105.51 13.51L105.51 13.51Q105.32 14.08 105.22 14.50L105.22 14.50L105.22 14.50Q105.11 14.92 105.10 15.13L105.10 15.13L105.10 15.13Q106.23 14.90 107.39 14.73L107.39 14.73L107.39 14.73Q108.54 14.56 109.82 14.48L109.82 14.48L109.82 14.48Q109.97 14.71 110.08 14.99L110.08 14.99L110.08 14.99Q110.18 15.27 110.18 15.60L110.18 15.60L110.18 15.60Q110.18 15.68 110.18 15.78L110.18 15.78L110.18 15.78Q110.18 15.88 110.15 15.97L110.15 15.97L110.15 15.97Q109.76 15.96 109.33 15.95L109.33 15.95L109.33 15.95Q108.89 15.95 108.19 15.95L108.19 15.95L108.19 15.95Q107.73 15.95 107.32 15.97L107.32 15.97L107.32 15.97Q106.90 15.99 106.48 16.03L106.48 16.03L106.48 16.03Q106.06 16.07 105.60 16.14L105.60 16.14L105.60 16.14Q105.13 16.21 104.54 16.31L104.54 16.31L104.54 16.31Q103.89 16.06 103.29 15.08L103.29 15.08L103.29 15.08Q103.53 14.57 103.96 13.54L103.96 13.54L103.96 13.54Q104.38 12.52 105.04 10.79L105.04 10.79L105.04 10.79Q104.41 10.60 104.22 10.09L104.22 10.09L104.22 10.09Q104.29 10.02 104.62 9.92L104.62 9.92L104.62 9.92Q104.96 9.81 105.45 9.70L105.45 9.70L105.45 9.70Q105.66 9.16 105.81 8.75L105.81 8.75L105.81 8.75Q105.95 8.34 106.06 7.99L106.06 7.99L106.06 7.99Q106.18 7.63 106.27 7.29L106.27 7.29L106.27 7.29Q106.36 6.94 106.44 6.54L106.44 6.54L106.44 6.54Q105.95 6.51 105.67 6.27L105.67 6.27L105.67 6.27Q105.39 6.02 105.39 5.63L105.39 5.63L105.39 5.63Q105.39 5.52 105.43 5.36L105.43 5.36L105.43 5.36Q105.46 5.21 105.50 5.10L105.50 5.10L105.50 5.10Q105.78 5.14 106.04 5.15L106.04 5.15L106.04 5.15Q106.30 5.17 106.72 5.17L106.72 5.17L106.72 5.17Q107.60 5.17 108.37 5.12L108.37 5.12L108.37 5.12Q109.14 5.07 109.77 5.01L109.77 5.01L109.77 5.01Q110.39 4.96 110.84 4.91L110.84 4.91L110.84 4.91Q111.29 4.86 111.52 4.86L111.52 4.86L111.52 4.86Q111.85 4.86 112.10 5.19L112.10 5.19L112.10 5.19Q112.35 5.53 112.48 6.15L112.48 6.15L112.48 6.15Q112.04 6.10 111.77 6.09L111.77 6.09L111.77 6.09Q111.50 6.08 111.29 6.08L111.29 6.08L111.29 6.08Q110.52 6.08 109.88 6.15L109.88 6.15L109.88 6.15Q109.24 6.23 108.65 6.31L108.65 6.31L108.65 6.31Q108.57 6.44 108.47 6.64L108.47 6.64L108.47 6.64Q108.36 6.83 108.19 7.18L108.19 7.18L108.19 7.18Q108.02 7.53 107.78 8.06L107.78 8.06L107.78 8.06Q107.53 8.60 107.18 9.39L107.18 9.39L107.18 9.39Q107.72 9.31 108.19 9.26L108.19 9.26L108.19 9.26Q108.65 9.21 108.98 9.21ZM138.70 7.46L138.70 7.46L138.70 7.46Q138.70 8.33 138.22 9.01L138.22 9.01L138.22 9.01Q137.75 9.69 136.92 10.14L136.92 10.14L136.92 10.14Q137.45 10.50 137.77 11.03L137.77 11.03L137.77 11.03Q138.08 11.55 138.08 12.18L138.08 12.18L138.08 12.18Q138.08 12.94 137.63 13.67L137.63 13.67L137.63 13.67Q137.17 14.41 136.42 14.97L136.42 14.97L136.42 14.97Q135.66 15.54 134.69 15.89L134.69 15.89L134.69 15.89Q133.73 16.24 132.72 16.24L132.72 16.24L132.72 16.24Q131.63 16.24 130.81 15.83L130.81 15.83L130.81 15.83Q129.99 15.41 129.53 14.66L129.53 14.66L129.53 14.66Q129.67 14.24 129.90 13.62L129.90 13.62L129.90 13.62Q130.13 12.99 130.41 12.30L130.41 12.30L130.41 12.30Q130.69 11.61 130.98 10.92L130.98 10.92L130.98 10.92Q131.26 10.23 131.52 9.69L131.52 9.69L131.52 9.69Q132.05 8.50 132.47 7.71L132.47 7.71L132.47 7.71Q132.89 6.93 133.24 6.47L133.24 6.47L133.24 6.47Q132.47 6.71 131.84 7.01L131.84 7.01L131.84 7.01Q131.21 7.31 130.91 7.59L130.91 7.59L130.91 7.59Q130.79 7.50 130.66 7.34L130.66 7.34L130.66 7.34Q130.52 7.17 130.40 6.96L130.40 6.96L130.40 6.96Q130.28 6.76 130.21 6.55L130.21 6.55L130.21 6.55Q130.13 6.34 130.12 6.17L130.12 6.17L130.12 6.17Q130.48 5.92 131.06 5.69L131.06 5.69L131.06 5.69Q131.64 5.46 132.33 5.29L132.33 5.29L132.33 5.29Q133.01 5.12 133.74 5.03L133.74 5.03L133.74 5.03Q134.46 4.93 135.11 4.93L135.11 4.93L135.11 4.93Q136.79 4.93 137.75 5.60L137.75 5.60L137.75 5.60Q138.70 6.27 138.70 7.46ZM133.36 10.81L133.36 10.81L133.36 10.81Q133.10 10.68 132.87 10.43L132.87 10.43L132.87 10.43Q132.55 11.14 132.27 11.83L132.27 11.83L132.27 11.83Q131.98 12.52 131.75 13.10L131.75 13.10L131.75 13.10Q131.53 13.69 131.39 14.13L131.39 14.13L131.39 14.13Q131.25 14.56 131.24 14.76L131.24 14.76L131.24 14.76Q131.43 14.87 131.71 14.92L131.71 14.92L131.71 14.92Q131.98 14.98 132.38 14.98L132.38 14.98L132.38 14.98Q133.34 14.98 134.20 14.71L134.20 14.71L134.20 14.71Q135.07 14.45 135.73 13.99L135.73 13.99L135.73 13.99Q136.39 13.54 136.78 12.95L136.78 12.95L136.78 12.95Q137.17 12.36 137.17 11.72L137.17 11.72L137.17 11.72Q137.17 10.79 136.37 10.39L136.37 10.39L136.37 10.39Q135.28 10.84 133.91 10.84L133.91 10.84L133.91 10.84Q133.71 10.84 133.61 10.84L133.61 10.84L133.61 10.84Q133.50 10.84 133.36 10.81ZM136.08 5.95L136.08 5.95L136.08 5.95Q135.79 5.95 135.46 5.98L135.46 5.98L135.46 5.98Q135.13 6.02 134.76 6.09L134.76 6.09L134.76 6.09Q134.82 6.15 134.86 6.21L134.86 6.21L134.86 6.21Q134.89 6.27 134.92 6.34L134.92 6.34L134.92 6.34Q134.79 6.51 134.61 6.83L134.61 6.83L134.61 6.83Q134.43 7.15 134.20 7.58L134.20 7.58L134.20 7.58Q133.98 8.01 133.74 8.53L133.74 8.53L133.74 8.53Q133.49 9.04 133.24 9.59L133.24 9.59L133.24 9.59Q133.48 9.53 133.82 9.50L133.82 9.50L133.82 9.50Q134.16 9.46 134.50 9.46L134.50 9.46L134.50 9.46Q134.68 9.46 134.86 9.48L134.86 9.48L134.86 9.48Q135.03 9.49 135.20 9.52L135.20 9.52L135.20 9.52Q135.87 9.41 136.41 9.19L136.41 9.19L136.41 9.19Q136.95 8.97 137.34 8.69L137.34 8.69L137.34 8.69Q137.73 8.40 137.94 8.05L137.94 8.05L137.94 8.05Q138.15 7.70 138.15 7.31L138.15 7.31L138.15 7.31Q138.15 6.64 137.62 6.29L137.62 6.29L137.62 6.29Q137.09 5.95 136.08 5.95ZM151.83 9.21L151.83 9.21L151.83 9.21Q152.29 9.21 152.55 9.46L152.55 9.46L152.55 9.46Q152.81 9.72 152.81 10.16L152.81 10.16L152.81 10.16Q152.81 10.28 152.79 10.39L152.79 10.39L152.79 10.39Q152.77 10.51 152.74 10.60L152.74 10.60L152.74 10.60Q152.56 10.57 152.33 10.55L152.33 10.55L152.33 10.55Q152.11 10.53 151.80 10.53L151.80 10.53L151.80 10.53Q151.20 10.53 150.58 10.63L150.58 10.63L150.58 10.63Q149.97 10.74 149.41 10.81L149.41 10.81L149.41 10.81Q149.09 11.55 148.82 12.24L148.82 12.24L148.82 12.24Q148.55 12.94 148.37 13.51L148.37 13.51L148.37 13.51Q148.18 14.08 148.07 14.50L148.07 14.50L148.07 14.50Q147.97 14.92 147.95 15.13L147.95 15.13L147.95 15.13Q149.09 14.90 150.24 14.73L150.24 14.73L150.24 14.73Q151.40 14.56 152.67 14.48L152.67 14.48L152.67 14.48Q152.82 14.71 152.93 14.99L152.93 14.99L152.93 14.99Q153.03 15.27 153.03 15.60L153.03 15.60L153.03 15.60Q153.03 15.68 153.03 15.78L153.03 15.78L153.03 15.78Q153.03 15.88 153.01 15.97L153.01 15.97L153.01 15.97Q152.61 15.96 152.18 15.95L152.18 15.95L152.18 15.95Q151.75 15.95 151.05 15.95L151.05 15.95L151.05 15.95Q150.58 15.95 150.17 15.97L150.17 15.97L150.17 15.97Q149.76 15.99 149.34 16.03L149.34 16.03L149.34 16.03Q148.92 16.07 148.45 16.14L148.45 16.14L148.45 16.14Q147.98 16.21 147.39 16.31L147.39 16.31L147.39 16.31Q146.75 16.06 146.15 15.08L146.15 15.08L146.15 15.08Q146.38 14.57 146.81 13.54L146.81 13.54L146.81 13.54Q147.24 12.52 147.90 10.79L147.90 10.79L147.90 10.79Q147.27 10.60 147.07 10.09L147.07 10.09L147.07 10.09Q147.14 10.02 147.48 9.92L147.48 9.92L147.48 9.92Q147.81 9.81 148.30 9.70L148.30 9.70L148.30 9.70Q148.51 9.16 148.66 8.75L148.66 8.75L148.66 8.75Q148.81 8.34 148.92 7.99L148.92 7.99L148.92 7.99Q149.03 7.63 149.12 7.29L149.12 7.29L149.12 7.29Q149.21 6.94 149.30 6.54L149.30 6.54L149.30 6.54Q148.81 6.51 148.53 6.27L148.53 6.27L148.53 6.27Q148.25 6.02 148.25 5.63L148.25 5.63L148.25 5.63Q148.25 5.52 148.28 5.36L148.28 5.36L148.28 5.36Q148.32 5.21 148.36 5.10L148.36 5.10L148.36 5.10Q148.64 5.14 148.90 5.15L148.90 5.15L148.90 5.15Q149.16 5.17 149.58 5.17L149.58 5.17L149.58 5.17Q150.46 5.17 151.23 5.12L151.23 5.12L151.23 5.12Q152.00 5.07 152.62 5.01L152.62 5.01L152.62 5.01Q153.24 4.96 153.69 4.91L153.69 4.91L153.69 4.91Q154.14 4.86 154.38 4.86L154.38 4.86L154.38 4.86Q154.70 4.86 154.95 5.19L154.95 5.19L154.95 5.19Q155.20 5.53 155.33 6.15L155.33 6.15L155.33 6.15Q154.90 6.10 154.62 6.09L154.62 6.09L154.62 6.09Q154.35 6.08 154.14 6.08L154.14 6.08L154.14 6.08Q153.37 6.08 152.73 6.15L152.73 6.15L152.73 6.15Q152.10 6.23 151.51 6.31L151.51 6.31L151.51 6.31Q151.42 6.44 151.32 6.64L151.32 6.64L151.32 6.64Q151.21 6.83 151.05 7.18L151.05 7.18L151.05 7.18Q150.88 7.53 150.63 8.06L150.63 8.06L150.63 8.06Q150.39 8.60 150.04 9.39L150.04 9.39L150.04 9.39Q150.57 9.31 151.04 9.26L151.04 9.26L151.04 9.26Q151.51 9.21 151.83 9.21ZM170.70 5.74L170.70 5.74L170.70 5.74Q170.74 5.98 170.77 6.07L170.77 6.07L170.77 6.07Q170.79 6.16 170.79 6.31L170.79 6.31L170.79 6.31Q170.79 6.78 170.58 7.18L170.58 7.18L170.58 7.18Q170.38 7.57 170.03 7.74L170.03 7.74L170.03 7.74Q169.75 7.36 169.34 7.09L169.34 7.09L169.34 7.09Q168.94 6.82 168.46 6.64L168.46 6.64L168.46 6.64Q167.97 6.47 167.45 6.38L167.45 6.38L167.45 6.38Q166.94 6.30 166.45 6.30L166.45 6.30L166.45 6.30Q165.96 6.30 165.53 6.38L165.53 6.38L165.53 6.38Q165.10 6.45 164.77 6.59L164.77 6.59L164.77 6.59Q164.44 6.72 164.26 6.92L164.26 6.92L164.26 6.92Q164.07 7.11 164.07 7.36L164.07 7.36L164.07 7.36Q164.11 7.67 164.44 7.99L164.44 7.99L164.44 7.99Q164.78 8.30 165.27 8.60L165.27 8.60L165.27 8.60Q165.76 8.90 166.36 9.20L166.36 9.20L166.36 9.20Q166.95 9.49 167.52 9.76L167.52 9.76L167.52 9.76Q168.24 10.09 168.76 10.38L168.76 10.38L168.76 10.38Q169.27 10.67 169.61 11.01L169.61 11.01L169.61 11.01Q169.95 11.35 170.11 11.79L170.11 11.79L170.11 11.79Q170.28 12.22 170.28 12.84L170.28 12.84L170.28 12.84Q170.28 13.55 170.04 14.18L170.04 14.18L170.04 14.18Q169.81 14.80 169.35 15.26L169.35 15.26L169.35 15.26Q168.90 15.72 168.25 15.98L168.25 15.98L168.25 15.98Q167.61 16.24 166.81 16.24L166.81 16.24L166.81 16.24Q166.03 16.24 165.12 16.00L165.12 16.00L165.12 16.00Q164.21 15.76 163.42 15.35L163.42 15.35L163.42 15.35Q162.62 14.94 162.10 14.40L162.10 14.40L162.10 14.40Q161.57 13.86 161.57 13.26L161.57 13.26L161.57 13.26Q161.57 12.98 161.74 12.54L161.74 12.54L161.74 12.54Q161.90 12.11 162.32 11.63L162.32 11.63L162.32 11.63Q162.36 12.05 162.77 12.63L162.77 12.63L162.77 12.63Q163.18 13.20 164.01 13.69L164.01 13.69L164.01 13.69Q164.78 14.14 165.60 14.34L165.60 14.34L165.60 14.34Q166.42 14.55 167.13 14.55L167.13 14.55L167.13 14.55Q167.92 14.55 168.41 14.35L168.41 14.35L168.41 14.35Q168.90 14.15 169.18 13.88L169.18 13.88L169.18 13.88Q169.46 13.61 169.57 13.33L169.57 13.33L169.57 13.33Q169.68 13.05 169.69 12.88L169.69 12.88L169.69 12.88Q169.68 12.60 169.44 12.34L169.44 12.34L169.44 12.34Q169.19 12.08 168.78 11.84L168.78 11.84L168.78 11.84Q168.36 11.59 167.82 11.34L167.82 11.34L167.82 11.34Q167.27 11.09 166.68 10.84L166.68 10.84L166.68 10.84Q165.80 10.44 165.17 10.10L165.17 10.10L165.17 10.10Q164.53 9.76 164.12 9.40L164.12 9.40L164.12 9.40Q163.70 9.04 163.51 8.65L163.51 8.65L163.51 8.65Q163.32 8.26 163.32 7.76L163.32 7.76L163.32 7.76Q163.32 6.97 163.80 6.27L163.80 6.27L163.80 6.27Q164.28 5.57 165.17 5.21L165.17 5.21L165.17 5.21Q165.62 5.01 166.13 4.93L166.13 4.93L166.13 4.93Q166.64 4.84 167.13 4.84L167.13 4.84L167.13 4.84Q168.06 4.84 168.94 5.10L168.94 5.10L168.94 5.10Q169.82 5.35 170.70 5.74ZM180.68 6.69L180.68 6.69L180.68 6.69Q180.12 6.69 179.82 6.38L179.82 6.38L179.82 6.38Q179.52 6.06 179.52 5.61L179.52 5.61L179.52 5.61Q179.52 5.50 179.56 5.35L179.56 5.35L179.56 5.35Q179.59 5.19 179.65 5.08L179.65 5.08L179.65 5.08Q179.83 5.17 180.19 5.20L180.19 5.20L180.19 5.20Q180.54 5.24 181.02 5.24L181.02 5.24L181.02 5.24Q181.73 5.24 182.64 5.17L182.64 5.17L182.64 5.17Q183.54 5.11 184.37 5.04L184.37 5.04L184.37 5.04Q185.19 4.97 185.82 4.91L185.82 4.91L185.82 4.91Q186.45 4.84 186.63 4.84L186.63 4.84L186.63 4.84Q187.15 4.84 187.38 5.23L187.38 5.23L187.38 5.23Q187.61 5.61 187.73 6.26L187.73 6.26L187.73 6.26Q187.36 6.23 187.01 6.21L187.01 6.21L187.01 6.21Q186.65 6.19 186.40 6.19L186.40 6.19L186.40 6.19Q185.95 6.19 185.49 6.22L185.49 6.22L185.49 6.22Q185.04 6.24 184.58 6.30L184.58 6.30L184.58 6.30Q184.38 6.71 184.14 7.26L184.14 7.26L184.14 7.26Q183.90 7.81 183.67 8.41L183.67 8.41L183.67 8.41Q183.44 9.02 183.23 9.61L183.23 9.61L183.23 9.61Q183.02 10.21 182.87 10.68L182.87 10.68L182.87 10.68Q182.56 11.61 182.33 12.39L182.33 12.39L182.33 12.39Q182.10 13.17 181.92 13.85L181.92 13.85L181.92 13.85Q181.75 14.53 181.62 15.15L181.62 15.15L181.62 15.15Q181.50 15.76 181.40 16.35L181.40 16.35L181.40 16.35Q180.46 16.21 179.83 15.18L179.83 15.18L179.83 15.18Q179.94 14.74 180.10 14.23L180.10 14.23L180.10 14.23Q180.26 13.72 180.48 13.07L180.48 13.07L180.48 13.07Q180.70 12.42 180.99 11.59L180.99 11.59L180.99 11.59Q181.29 10.77 181.66 9.72L181.66 9.72L181.66 9.72Q181.80 9.32 181.96 8.90L181.96 8.90L181.96 8.90Q182.11 8.47 182.26 8.05L182.26 8.05L182.26 8.05Q182.41 7.63 182.53 7.24L182.53 7.24L182.53 7.24Q182.64 6.85 182.73 6.52L182.73 6.52L182.73 6.52Q182.14 6.59 181.62 6.64L181.62 6.64L181.62 6.64Q181.09 6.69 180.68 6.69ZM206.25 6.69L206.25 6.69L206.25 6.69Q205.69 6.69 205.39 6.38L205.39 6.38L205.39 6.38Q205.09 6.06 205.09 5.61L205.09 5.61L205.09 5.61Q205.09 5.50 205.12 5.35L205.12 5.35L205.12 5.35Q205.16 5.19 205.21 5.08L205.21 5.08L205.21 5.08Q205.39 5.17 205.75 5.20L205.75 5.20L205.75 5.20Q206.11 5.24 206.58 5.24L206.58 5.24L206.58 5.24Q207.30 5.24 208.20 5.17L208.20 5.17L208.20 5.17Q209.10 5.11 209.93 5.04L209.93 5.04L209.93 5.04Q210.76 4.97 211.39 4.91L211.39 4.91L211.39 4.91Q212.02 4.84 212.20 4.84L212.20 4.84L212.20 4.84Q212.72 4.84 212.95 5.23L212.95 5.23L212.95 5.23Q213.18 5.61 213.29 6.26L213.29 6.26L213.29 6.26Q212.93 6.23 212.57 6.21L212.57 6.21L212.57 6.21Q212.21 6.19 211.96 6.19L211.96 6.19L211.96 6.19Q211.51 6.19 211.06 6.22L211.06 6.22L211.06 6.22Q210.60 6.24 210.14 6.30L210.14 6.30L210.14 6.30Q209.94 6.71 209.71 7.26L209.71 7.26L209.71 7.26Q209.47 7.81 209.24 8.41L209.24 8.41L209.24 8.41Q209.01 9.02 208.80 9.61L208.80 9.61L208.80 9.61Q208.59 10.21 208.43 10.68L208.43 10.68L208.43 10.68Q208.12 11.61 207.89 12.39L207.89 12.39L207.89 12.39Q207.66 13.17 207.49 13.85L207.49 13.85L207.49 13.85Q207.31 14.53 207.19 15.15L207.19 15.15L207.19 15.15Q207.06 15.76 206.96 16.35L206.96 16.35L206.96 16.35Q206.02 16.21 205.39 15.18L205.39 15.18L205.39 15.18Q205.51 14.74 205.67 14.23L205.67 14.23L205.67 14.23Q205.83 13.72 206.05 13.07L206.05 13.07L206.05 13.07Q206.26 12.42 206.56 11.59L206.56 11.59L206.56 11.59Q206.85 10.77 207.23 9.72L207.23 9.72L207.23 9.72Q207.37 9.32 207.52 8.90L207.52 8.90L207.52 8.90Q207.68 8.47 207.82 8.05L207.82 8.05L207.82 8.05Q207.97 7.63 208.09 7.24L208.09 7.24L208.09 7.24Q208.21 6.85 208.29 6.52L208.29 6.52L208.29 6.52Q207.70 6.59 207.18 6.64L207.18 6.64L207.18 6.64Q206.65 6.69 206.25 6.69ZM218.68 16.24L218.68 16.24L218.68 16.24Q218.01 16.04 217.75 15.85L217.75 15.85L217.75 15.85Q217.49 15.65 217.49 15.36L217.49 15.36L217.49 15.36Q217.49 15.13 217.62 14.73L217.62 14.73L217.62 14.73Q217.74 14.32 217.99 13.77L217.99 13.77L217.99 13.77Q218.23 13.22 218.58 12.54L218.58 12.54L218.58 12.54Q218.92 11.87 219.35 11.10L219.35 11.10L219.35 11.10Q218.99 11.09 218.70 11.08L218.70 11.08L218.70 11.08Q218.41 11.07 218.23 11.07L218.23 11.07L218.23 11.07Q218.32 10.86 218.71 10.71L218.71 10.71L218.71 10.71Q219.10 10.56 219.74 10.44L219.74 10.44L219.74 10.44Q220.29 9.53 220.91 8.71L220.91 8.71L220.91 8.71Q221.54 7.88 222.17 7.19L222.17 7.19L222.17 7.19Q222.80 6.50 223.43 5.97L223.43 5.97L223.43 5.97Q224.06 5.45 224.63 5.14L224.63 5.14L224.63 5.14Q224.64 5.04 224.65 4.97L224.65 4.97L224.65 4.97Q224.66 4.90 224.66 4.87L224.66 4.87L224.66 4.87Q224.85 4.87 225.18 4.97L225.18 4.97L225.18 4.97Q225.51 5.07 225.83 5.21L225.83 5.21L225.83 5.21Q226.14 5.35 226.39 5.49L226.39 5.49L226.39 5.49Q226.63 5.64 226.66 5.74L226.66 5.74L226.66 5.74Q226.20 6.55 225.75 8.17L225.75 8.17L225.75 8.17Q225.30 9.79 225.01 12.04L225.01 12.04L225.01 12.04Q224.94 12.60 224.89 13.31L224.89 13.31L224.89 13.31Q224.84 14.03 224.84 14.91L224.84 14.91L224.84 14.91Q224.84 15.22 224.84 15.54L224.84 15.54L224.84 15.54Q224.84 15.86 224.87 16.21L224.87 16.21L224.87 16.21Q224.84 16.23 224.81 16.23L224.81 16.23L224.81 16.23Q224.78 16.23 224.70 16.23L224.70 16.23L224.70 16.23Q224.50 16.23 224.25 16.16L224.25 16.16L224.25 16.16Q223.99 16.10 223.74 16.01L223.74 16.01L223.74 16.01Q223.50 15.92 223.32 15.81L223.32 15.81L223.32 15.81Q223.15 15.69 223.10 15.61L223.10 15.61L223.10 15.61Q223.09 15.43 223.09 15.25L223.09 15.25L223.09 15.25Q223.09 15.08 223.09 14.88L223.09 14.88L223.09 14.88Q223.09 14.01 223.15 13.12L223.15 13.12L223.15 13.12Q223.22 12.22 223.37 11.27L223.37 11.27L223.37 11.27Q223.17 11.26 222.85 11.23L222.85 11.23L222.85 11.23Q222.53 11.21 222.13 11.20L222.13 11.20L222.13 11.20Q221.73 11.19 221.28 11.16L221.28 11.16L221.28 11.16Q220.82 11.14 220.39 11.13L220.39 11.13L220.39 11.13Q220.05 11.76 219.76 12.38L219.76 12.38L219.76 12.38Q219.46 13.01 219.25 13.64L219.25 13.64L219.25 13.64Q219.02 14.31 218.87 14.98L218.87 14.98L218.87 14.98Q218.72 15.65 218.68 16.24ZM224.08 7.83L224.08 7.83L224.08 7.83Q224.14 7.63 224.22 7.29L224.22 7.29L224.22 7.29Q224.29 6.94 224.36 6.57L224.36 6.57L224.36 6.57Q224.01 6.69 223.59 7.03L223.59 7.03L223.59 7.03Q223.16 7.36 222.71 7.86L222.71 7.86L222.71 7.86Q222.25 8.36 221.78 8.98L221.78 8.98L221.78 8.98Q221.31 9.60 220.88 10.30L220.88 10.30L220.88 10.30Q222.05 10.21 223.55 10.18L223.55 10.18L223.55 10.18Q223.66 9.59 223.80 9.01L223.80 9.01L223.80 9.01Q223.93 8.43 224.08 7.83ZM243.07 5.74L243.07 5.74L243.07 5.74Q243.11 5.98 243.13 6.07L243.13 6.07L243.13 6.07Q243.15 6.16 243.15 6.31L243.15 6.31L243.15 6.31Q243.15 6.78 242.95 7.18L242.95 7.18L242.95 7.18Q242.75 7.57 242.40 7.74L242.40 7.74L242.40 7.74Q242.12 7.36 241.71 7.09L241.71 7.09L241.71 7.09Q241.30 6.82 240.82 6.64L240.82 6.64L240.82 6.64Q240.34 6.47 239.82 6.38L239.82 6.38L239.82 6.38Q239.30 6.30 238.81 6.30L238.81 6.30L238.81 6.30Q238.32 6.30 237.90 6.38L237.90 6.38L237.90 6.38Q237.47 6.45 237.14 6.59L237.14 6.59L237.14 6.59Q236.81 6.72 236.62 6.92L236.62 6.92L236.62 6.92Q236.43 7.11 236.43 7.36L236.43 7.36L236.43 7.36Q236.47 7.67 236.81 7.99L236.81 7.99L236.81 7.99Q237.15 8.30 237.64 8.60L237.64 8.60L237.64 8.60Q238.13 8.90 238.72 9.20L238.72 9.20L238.72 9.20Q239.32 9.49 239.89 9.76L239.89 9.76L239.89 9.76Q240.60 10.09 241.12 10.38L241.12 10.38L241.12 10.38Q241.64 10.67 241.98 11.01L241.98 11.01L241.98 11.01Q242.31 11.35 242.48 11.79L242.48 11.79L242.48 11.79Q242.65 12.22 242.65 12.84L242.65 12.84L242.65 12.84Q242.65 13.55 242.41 14.18L242.41 14.18L242.41 14.18Q242.17 14.80 241.72 15.26L241.72 15.26L241.72 15.26Q241.26 15.72 240.62 15.98L240.62 15.98L240.62 15.98Q239.97 16.24 239.18 16.24L239.18 16.24L239.18 16.24Q238.39 16.24 237.48 16.00L237.48 16.00L237.48 16.00Q236.57 15.76 235.78 15.35L235.78 15.35L235.78 15.35Q234.99 14.94 234.47 14.40L234.47 14.40L234.47 14.40Q233.94 13.86 233.94 13.26L233.94 13.26L233.94 13.26Q233.94 12.98 234.10 12.54L234.10 12.54L234.10 12.54Q234.26 12.11 234.68 11.63L234.68 11.63L234.68 11.63Q234.72 12.05 235.14 12.63L235.14 12.63L235.14 12.63Q235.55 13.20 236.38 13.69L236.38 13.69L236.38 13.69Q237.15 14.14 237.97 14.34L237.97 14.34L237.97 14.34Q238.78 14.55 239.50 14.55L239.50 14.55L239.50 14.55Q240.28 14.55 240.77 14.35L240.77 14.35L240.77 14.35Q241.26 14.15 241.54 13.88L241.54 13.88L241.54 13.88Q241.82 13.61 241.93 13.33L241.93 13.33L241.93 13.33Q242.05 13.05 242.06 12.88L242.06 12.88L242.06 12.88Q242.05 12.60 241.80 12.34L241.80 12.34L241.80 12.34Q241.56 12.08 241.14 11.84L241.14 11.84L241.14 11.84Q240.73 11.59 240.18 11.34L240.18 11.34L240.18 11.34Q239.64 11.09 239.05 10.84L239.05 10.84L239.05 10.84Q238.17 10.44 237.53 10.10L237.53 10.10L237.53 10.10Q236.89 9.76 236.48 9.40L236.48 9.40L236.48 9.40Q236.07 9.04 235.88 8.65L235.88 8.65L235.88 8.65Q235.69 8.26 235.69 7.76L235.69 7.76L235.69 7.76Q235.69 6.97 236.17 6.27L236.17 6.27L236.17 6.27Q236.64 5.57 237.54 5.21L237.54 5.21L237.54 5.21Q237.99 5.01 238.50 4.93L238.50 4.93L238.50 4.93Q239.01 4.84 239.50 4.84L239.50 4.84L239.50 4.84Q240.42 4.84 241.30 5.10L241.30 5.10L241.30 5.10Q242.19 5.35 243.07 5.74ZM253.05 6.69L253.05 6.69L253.05 6.69Q252.49 6.69 252.19 6.38L252.19 6.38L252.19 6.38Q251.89 6.06 251.89 5.61L251.89 5.61L251.89 5.61Q251.89 5.50 251.92 5.35L251.92 5.35L251.92 5.35Q251.96 5.19 252.01 5.08L252.01 5.08L252.01 5.08Q252.20 5.17 252.55 5.20L252.55 5.20L252.55 5.20Q252.91 5.24 253.39 5.24L253.39 5.24L253.39 5.24Q254.10 5.24 255.00 5.17L255.00 5.17L255.00 5.17Q255.91 5.11 256.73 5.04L256.73 5.04L256.73 5.04Q257.56 4.97 258.19 4.91L258.19 4.91L258.19 4.91Q258.82 4.84 259 4.84L259 4.84L259 4.84Q259.52 4.84 259.75 5.23L259.75 5.23L259.75 5.23Q259.98 5.61 260.09 6.26L260.09 6.26L260.09 6.26Q259.73 6.23 259.37 6.21L259.37 6.21L259.37 6.21Q259.01 6.19 258.76 6.19L258.76 6.19L258.76 6.19Q258.31 6.19 257.86 6.22L257.86 6.22L257.86 6.22Q257.40 6.24 256.94 6.30L256.94 6.30L256.94 6.30Q256.75 6.71 256.51 7.26L256.51 7.26L256.51 7.26Q256.27 7.81 256.04 8.41L256.04 8.41L256.04 8.41Q255.81 9.02 255.60 9.61L255.60 9.61L255.60 9.61Q255.39 10.21 255.23 10.68L255.23 10.68L255.23 10.68Q254.93 11.61 254.69 12.39L254.69 12.39L254.69 12.39Q254.46 13.17 254.29 13.85L254.29 13.85L254.29 13.85Q254.11 14.53 253.99 15.15L253.99 15.15L253.99 15.15Q253.86 15.76 253.76 16.35L253.76 16.35L253.76 16.35Q252.83 16.21 252.20 15.18L252.20 15.18L252.20 15.18Q252.31 14.74 252.47 14.23L252.47 14.23L252.47 14.23Q252.63 13.72 252.85 13.07L252.85 13.07L252.85 13.07Q253.06 12.42 253.36 11.59L253.36 11.59L253.36 11.59Q253.65 10.77 254.03 9.72L254.03 9.72L254.03 9.72Q254.17 9.32 254.32 8.90L254.32 8.90L254.32 8.90Q254.48 8.47 254.63 8.05L254.63 8.05L254.63 8.05Q254.77 7.63 254.89 7.24L254.89 7.24L254.89 7.24Q255.01 6.85 255.09 6.52L255.09 6.52L255.09 6.52Q254.51 6.59 253.98 6.64L253.98 6.64L253.98 6.64Q253.46 6.69 253.05 6.69ZM271.29 9.21L271.29 9.21L271.29 9.21Q271.75 9.21 272.01 9.46L272.01 9.46L272.01 9.46Q272.27 9.72 272.27 10.16L272.27 10.16L272.27 10.16Q272.27 10.28 272.25 10.39L272.25 10.39L272.25 10.39Q272.23 10.51 272.20 10.60L272.20 10.60L272.20 10.60Q272.02 10.57 271.80 10.55L271.80 10.55L271.80 10.55Q271.57 10.53 271.26 10.53L271.26 10.53L271.26 10.53Q270.66 10.53 270.05 10.63L270.05 10.63L270.05 10.63Q269.43 10.74 268.87 10.81L268.87 10.81L268.87 10.81Q268.55 11.55 268.28 12.24L268.28 12.24L268.28 12.24Q268.02 12.94 267.83 13.51L267.83 13.51L267.83 13.51Q267.64 14.08 267.53 14.50L267.53 14.50L267.53 14.50Q267.43 14.92 267.41 15.13L267.41 15.13L267.41 15.13Q268.55 14.90 269.70 14.73L269.70 14.73L269.70 14.73Q270.86 14.56 272.13 14.48L272.13 14.48L272.13 14.48Q272.29 14.71 272.39 14.99L272.39 14.99L272.39 14.99Q272.50 15.27 272.50 15.60L272.50 15.60L272.50 15.60Q272.50 15.68 272.50 15.78L272.50 15.78L272.50 15.78Q272.50 15.88 272.47 15.97L272.47 15.97L272.47 15.97Q272.08 15.96 271.64 15.95L271.64 15.95L271.64 15.95Q271.21 15.95 270.51 15.95L270.51 15.95L270.51 15.95Q270.05 15.95 269.63 15.97L269.63 15.97L269.63 15.97Q269.22 15.99 268.80 16.03L268.80 16.03L268.80 16.03Q268.38 16.07 267.91 16.14L267.91 16.14L267.91 16.14Q267.44 16.21 266.85 16.31L266.85 16.31L266.85 16.31Q266.21 16.06 265.61 15.08L265.61 15.08L265.61 15.08Q265.85 14.57 266.27 13.54L266.27 13.54L266.27 13.54Q266.70 12.52 267.36 10.79L267.36 10.79L267.36 10.79Q266.73 10.60 266.53 10.09L266.53 10.09L266.53 10.09Q266.60 10.02 266.94 9.92L266.94 9.92L266.94 9.92Q267.27 9.81 267.76 9.70L267.76 9.70L267.76 9.70Q267.97 9.16 268.12 8.75L268.12 8.75L268.12 8.75Q268.27 8.34 268.38 7.99L268.38 7.99L268.38 7.99Q268.49 7.63 268.58 7.29L268.58 7.29L268.58 7.29Q268.67 6.94 268.76 6.54L268.76 6.54L268.76 6.54Q268.27 6.51 267.99 6.27L267.99 6.27L267.99 6.27Q267.71 6.02 267.71 5.63L267.71 5.63L267.71 5.63Q267.71 5.52 267.74 5.36L267.74 5.36L267.74 5.36Q267.78 5.21 267.82 5.10L267.82 5.10L267.82 5.10Q268.10 5.14 268.36 5.15L268.36 5.15L268.36 5.15Q268.62 5.17 269.04 5.17L269.04 5.17L269.04 5.17Q269.92 5.17 270.69 5.12L270.69 5.12L270.69 5.12Q271.46 5.07 272.08 5.01L272.08 5.01L272.08 5.01Q272.71 4.96 273.15 4.91L273.15 4.91L273.15 4.91Q273.60 4.86 273.84 4.86L273.84 4.86L273.84 4.86Q274.16 4.86 274.41 5.19L274.41 5.19L274.41 5.19Q274.67 5.53 274.79 6.15L274.79 6.15L274.79 6.15Q274.36 6.10 274.08 6.09L274.08 6.09L274.08 6.09Q273.81 6.08 273.60 6.08L273.60 6.08L273.60 6.08Q272.83 6.08 272.19 6.15L272.19 6.15L272.19 6.15Q271.56 6.23 270.97 6.31L270.97 6.31L270.97 6.31Q270.89 6.44 270.78 6.64L270.78 6.64L270.78 6.64Q270.68 6.83 270.51 7.18L270.51 7.18L270.51 7.18Q270.34 7.53 270.10 8.06L270.10 8.06L270.10 8.06Q269.85 8.60 269.50 9.39L269.50 9.39L269.50 9.39Q270.03 9.31 270.50 9.26L270.50 9.26L270.50 9.26Q270.97 9.21 271.29 9.21ZM281.37 15.71L281.37 15.71L281.37 15.71Q281.15 15.68 280.90 15.52L280.90 15.52L280.90 15.52Q280.66 15.36 280.59 15.16L280.59 15.16L280.59 15.16Q280.59 14.99 280.64 14.73L280.64 14.73L280.64 14.73Q280.69 14.46 280.76 14.19L280.76 14.19L280.76 14.19Q280.83 13.92 280.90 13.67L280.90 13.67L280.90 13.67Q280.97 13.43 280.99 13.30L280.99 13.30L280.99 13.30Q281.16 13.30 281.42 13.38L281.42 13.38L281.42 13.38Q281.68 13.47 281.95 13.62L281.95 13.62L281.95 13.62Q282.23 13.76 282.47 13.95L282.47 13.95L282.47 13.95Q282.72 14.14 282.84 14.34L282.84 14.34L282.84 14.34Q282.72 14.62 282.52 14.87L282.52 14.87L282.52 14.87Q282.32 15.12 282.11 15.31L282.11 15.31L282.11 15.31Q281.89 15.50 281.69 15.60L281.69 15.60L281.69 15.60Q281.50 15.71 281.37 15.71Z"></path></g></svg>